<svg width="1305" xmlns="http://www.w3.org/2000/svg" height="742" xmlns:xlink="http://www.w3.org/1999/xlink" viewBox="0 0 1305 742" xmlns:ev="http://www.w3.org/2001/xml-events"><defs/><g id="page1" transform="translate(5.5,5.5)"><rect fill="#ffffff" width="1295" height="732" x="0" y="0"/><g id="group1" transform="translate(79.500000,460.125000)"><path fill="#ffffff" id="shape2" stroke="#351d50" stroke-width="2" fill-rule="nonzero" d="M11.0,.0L962.0,.0C968.1,.0,973.0,4.9,973.0,11.0L973.0,240.8C973.0,246.8,968.1,251.8,962.0,251.8L11.0,251.8C4.9,251.8,.0,246.8,.0,240.8L.0,11.0C.0,4.9,4.9,.0,11.0,.0z"/></g><g id="group3" transform="translate(79.500000,146.149000)"><path fill="#ffffff" id="shape4" stroke="#ff0000" stroke-width="3.3333299160003662" fill-rule="nonzero" d="M11.0,.0L962.0,.0C968.1,.0,973.0,4.9,973.0,11.0L973.0,284.0C973.0,290.1,968.1,295.0,962.0,295.0L11.0,295.0C4.9,295.0,.0,290.1,.0,284.0L.0,11.0C.0,4.9,4.9,.0,11.0,.0z"/></g><g id="group5" transform="translate(277.000000,165.149000)"><path fill="none" id="shape6" stroke="#351d50" stroke-width="2" d="M11.0,.0L751.5,.0C757.6,.0,762.5,4.9,762.5,11.0L762.5,102.0C762.5,108.1,757.6,113.0,751.5,113.0L11.0,113.0C4.9,113.0,.0,108.1,.0,102.0L.0,11.0C.0,4.9,4.9,.0,11.0,.0z"/></g><g id="shape7" transform="translate(510.500000,211.149000)"><path fill="#46ba7d" stroke="#6f6f6f" stroke-width="1" fill-rule="nonzero" d="M96.0,45.0L96.0,.0L.0,.0L.0,45.0L96.0,45.0z"/><text style="fill:#ffffff;font-family:微软雅黑,PingFang SC,Mircrosoft YaHei,Arial;font-size:11.00pt" xml:space="preserve"><tspan x="13.3" y="25.8">FreeRTOS</tspan></text></g><g id="shape8" transform="translate(411.500000,211.149000)"><path fill="#46ba7d" stroke="#6f6f6f" stroke-width="1" fill-rule="nonzero" d="M71.5,45.0L71.5,.0L.0,.0L.0,45.0L71.5,45.0z"/><text style="fill:#ffffff;font-family:微软雅黑,PingFang SC,Mircrosoft YaHei,Arial;font-size:11.00pt" xml:space="preserve"><tspan x="26.4" y="25.8">AT</tspan></text></g><g id="shape9" transform="translate(300.500000,211.149000)"><path fill="#46ba7d" stroke="#6f6f6f" stroke-width="1" fill-rule="nonzero" d="M81.5,45.0L81.5,.0L.0,.0L.0,45.0L81.5,45.0z"/><text style="fill:#ffffff;font-family:微软雅黑,PingFang SC,Mircrosoft YaHei,Arial;font-size:11.00pt" xml:space="preserve"><tspan x="22.1" y="25.8">HTTP</tspan></text></g><g id="group10" transform="translate(112.000000,581.000000)"><path fill="#ffffff" id="shape11" stroke="#351d50" stroke-width="2" fill-rule="nonzero" d="M11.0,.0L915.5,.0C921.6,.0,926.5,4.9,926.5,11.0L926.5,96.0C926.5,102.1,921.6,107.0,915.5,107.0L11.0,107.0C4.9,107.0,.0,102.1,.0,96.0L.0,11.0C.0,4.9,4.9,.0,11.0,.0z"/></g><g id="shape12" transform="translate(291.500000,609.500000)"><path fill="#a0d8ef" stroke="#351d50" stroke-width="1" fill-rule="nonzero" d="M147.0,33.0L147.0,7.0C147.0,3.1,143.9,.0,140.0,.0L7.0,.0C3.1,.0,.0,3.1,.0,7.0L.0,33.0C.0,36.9,3.1,40.0,7.0,40.0L140.0,40.0C143.9,40.0,147.0,36.9,147.0,33.0z"/><text style="fill:#191919;font-family:微软雅黑,PingFang SC,Mircrosoft YaHei,Arial;font-size:12.00pt" xml:space="preserve"><tspan x="51.3" y="23.7">W800</tspan></text></g><g id="shape13" transform="translate(117.000000,594.000000)"><text style="fill:#191919;font-family:微软雅黑,PingFang SC,Mircrosoft YaHei,Arial;font-size:14.00pt" xml:space="preserve"><tspan x="53.4" y="40.3">SoC</tspan></text></g><g id="group14" transform="translate(112.000000,468.850000)"><path fill="#ffffff" id="shape15" stroke="#351d50" stroke-width="2" fill-rule="nonzero" d="M11.0,.0L915.5,.0C921.6,.0,926.5,4.9,926.5,11.0L926.5,73.0C926.5,79.1,921.6,84.0,915.5,84.0L11.0,84.0C4.9,84.0,.0,79.1,.0,73.0L.0,11.0C.0,4.9,4.9,.0,11.0,.0z"/></g><g id="shape16" transform="translate(300.000000,478.350000)"><path fill="#46ba7d" stroke="#351d50" stroke-width="1" fill-rule="nonzero" d="M100.0,60.0L100.0,.0L.0,.0L.0,60.0L100.0,60.0z"/><text style="fill:#191919;font-family:微软雅黑,PingFang SC,Mircrosoft YaHei,Arial;font-size:12.00pt" xml:space="preserve"><tspan x="31.3" y="33.7">RAM</tspan></text></g><g id="shape17" transform="translate(422.000000,478.350000)"><path fill="#46ba7d" stroke="#351d50" stroke-width="1" fill-rule="nonzero" d="M100.0,60.0L100.0,.0L.0,.0L.0,60.0L100.0,60.0z"/><text style="fill:#191919;font-family:微软雅黑,PingFang SC,Mircrosoft YaHei,Arial;font-size:12.00pt" xml:space="preserve"><tspan x="25.3" y="33.7">FLASH</tspan></text></g><g id="shape18" transform="translate(548.000000,478.350000)"><path fill="#46ba7d" stroke="#351d50" stroke-width="1" fill-rule="nonzero" d="M100.0,60.0L100.0,.0L.0,.0L.0,60.0L100.0,60.0z"/><text style="fill:#191919;font-family:微软雅黑,PingFang SC,Mircrosoft YaHei,Arial;font-size:12.00pt" xml:space="preserve"><tspan x="14.9" y="33.7">PIN MUX</tspan></text></g><g id="shape19" transform="translate(673.500000,478.350000)"><path fill="#46ba7d" stroke="#351d50" stroke-width="1" fill-rule="nonzero" d="M100.0,60.0L100.0,.0L.0,.0L.0,60.0L100.0,60.0z"/><text style="fill:#191919;font-family:微软雅黑,PingFang SC,Mircrosoft YaHei,Arial;font-size:12.00pt" xml:space="preserve"><tspan x="34.0" y="33.7">外设</tspan></text></g><g id="shape20" transform="translate(796.000000,478.350000)"><path fill="#46ba7d" stroke="#351d50" stroke-width="1" fill-rule="nonzero" d="M100.0,60.0L100.0,.0L.0,.0L.0,60.0L100.0,60.0z"/><text style="fill:#191919;font-family:微软雅黑,PingFang SC,Mircrosoft YaHei,Arial;font-size:12.00pt" xml:space="preserve"><tspan x="33.1" y="33.7">WiFi</tspan></text></g><g id="shape21" transform="translate(917.000000,478.350000)"><path fill="#46ba7d" stroke="#351d50" stroke-width="1" fill-rule="nonzero" d="M100.0,60.0L100.0,.0L.0,.0L.0,60.0L100.0,60.0z"/><text style="fill:#191919;font-family:微软雅黑,PingFang SC,Mircrosoft YaHei,Arial;font-size:12.00pt" xml:space="preserve"><tspan x="36.4" y="33.7">BLE</tspan></text></g><g id="shape22" transform="translate(112.000000,490.350000)"><text style="fill:#191919;font-family:微软雅黑,PingFang SC,Mircrosoft YaHei,Arial;font-size:14.00pt" xml:space="preserve"><tspan x="38.7" y="25.3">硬件资源</tspan></text></g><g id="group23" transform="translate(79.500000,42.149600)"><path fill="#ffffff" id="shape24" stroke="#351d50" stroke-width="2" fill-rule="nonzero" d="M11.0,.0L962.0,.0C968.1,.0,973.0,4.9,973.0,11.0L973.0,69.0C973.0,75.1,968.1,80.0,962.0,80.0L11.0,80.0C4.9,80.0,.0,75.1,.0,69.0L.0,11.0C.0,4.9,4.9,.0,11.0,.0z"/></g><g id="group25" transform="translate(277.000000,285.149000)"><path fill="none" id="shape26" stroke="#351d50" stroke-width="2" d="M11.0,.0L329.0,.0C335.1,.0,340.0,4.9,340.0,11.0L340.0,133.0C340.0,139.1,335.1,144.0,329.0,144.0L11.0,144.0C4.9,144.0,.0,139.1,.0,133.0L.0,11.0C.0,4.9,4.9,.0,11.0,.0z"/></g><g id="group27" transform="translate(684.000000,285.149000)"><path fill="none" id="shape28" stroke="#6f6f6f" stroke-width="2" d="M11.0,.0L329.0,.0C335.1,.0,340.0,4.9,340.0,11.0L340.0,133.0C340.0,139.1,335.1,144.0,329.0,144.0L11.0,144.0C4.9,144.0,.0,139.1,.0,133.0L.0,11.0C.0,4.9,4.9,.0,11.0,.0z"/></g><g id="shape29" transform="translate(556.000000,359.075500)"><path fill="#46ba7d" stroke="#639f32" stroke-width="1" fill-rule="nonzero" d="M48.0,51.9L48.0,.0L.0,.0L.0,51.9L48.0,51.9z"/><text style="fill:#ffffff;font-family:微软雅黑,PingFang SC,Mircrosoft YaHei,Arial;font-size:11.00pt" xml:space="preserve"><tspan x="16.4" y="29.3">LL</tspan></text></g><g id="shape30" transform="translate(296.000000,294.724000)"><text style="fill:#191919;font-family:微软雅黑,PingFang SC,Mircrosoft YaHei,Arial;font-size:13.00pt;font-weight:bold" xml:space="preserve"><tspan x="116.3" y="23.5">驱动组件</tspan></text></g><g id="shape31" transform="translate(863.500000,382.149000)"><path fill="#46ba7d" stroke="#6f6f6f" stroke-width="1" fill-rule="nonzero" d="M148.0,38.0L148.0,.0L.0,.0L.0,38.0L148.0,38.0z"/><text style="fill:#ffffff;font-family:微软雅黑,PingFang SC,Mircrosoft YaHei,Arial;font-size:11.00pt" xml:space="preserve"><tspan x="24.0" y="22.3">BLE Controller</tspan></text></g><g id="shape32" transform="translate(704.500000,338.149000)"><path fill="#46ba7d" stroke="#6f6f6f" stroke-width="1" fill-rule="nonzero" d="M148.0,38.0L148.0,.0L.0,.0L.0,38.0L148.0,38.0z"/><text style="fill:#ffffff;font-family:微软雅黑,PingFang SC,Mircrosoft YaHei,Arial;font-size:11.00pt" xml:space="preserve"><tspan x="18.4" y="22.3">Wpa_supplicant</tspan></text></g><g id="shape33" transform="translate(863.500000,338.149000)"><path fill="#46ba7d" stroke="#6f6f6f" stroke-width="1" fill-rule="nonzero" d="M148.0,38.0L148.0,.0L.0,.0L.0,38.0L148.0,38.0z"/><text style="fill:#ffffff;font-family:微软雅黑,PingFang SC,Mircrosoft YaHei,Arial;font-size:11.00pt" xml:space="preserve"><tspan x="39.1" y="22.3">BLE HOST</tspan></text></g><g id="shape34" transform="translate(704.500000,295.149000)"><text style="fill:#191919;font-family:微软雅黑,PingFang SC,Mircrosoft YaHei,Arial;font-size:13.00pt;font-weight:bold" xml:space="preserve"><tspan x="116.3" y="23.0">通信组件</tspan></text></g><g id="shape35" transform="translate(936.000000,211.149000)"><path fill="#46ba7d" stroke="#6f6f6f" stroke-width="1" fill-rule="nonzero" d="M75.5,45.0L75.5,.0L.0,.0L.0,45.0L75.5,45.0z"/><text style="fill:#ffffff;font-family:微软雅黑,PingFang SC,Mircrosoft YaHei,Arial;font-size:11.00pt" xml:space="preserve"><tspan x="25.3" y="25.8">BLE</tspan></text></g><g id="shape36" transform="translate(733.500000,211.149000)"><path fill="#46ba7d" stroke="#6f6f6f" stroke-width="1" fill-rule="nonzero" d="M82.5,45.0L82.5,.0L.0,.0L.0,45.0L82.5,45.0z"/><text style="fill:#ffffff;font-family:微软雅黑,PingFang SC,Mircrosoft YaHei,Arial;font-size:11.00pt" xml:space="preserve"><tspan x="25.7" y="25.8">WiFi</tspan></text></g><g id="shape37" transform="translate(636.500000,211.149000)"><path fill="#46ba7d" stroke="#6f6f6f" stroke-width="1" fill-rule="nonzero" d="M67.5,45.0L67.5,.0L.0,.0L.0,45.0L67.5,45.0z"/><text style="fill:#ffffff;font-family:微软雅黑,PingFang SC,Mircrosoft YaHei,Arial;font-size:11.00pt" xml:space="preserve"><tspan x="12.2" y="25.8">MQTT</tspan></text></g><g id="shape38" transform="translate(283.500000,171.649000)"><text style="fill:#191919;font-family:微软雅黑,PingFang SC,Mircrosoft YaHei,Arial;font-size:13.00pt;font-weight:bold" xml:space="preserve"><tspan x="1.8" y="20.0">应用组件</tspan></text></g><g id="shape39" transform="translate(94.500000,165.149000)"><text style="fill:#191919;font-family:微软雅黑,PingFang SC,Mircrosoft YaHei,Arial;font-size:14.00pt" xml:space="preserve"><tspan x="60.3" y="133.3">组件</tspan></text></g><g id="shape40" transform="translate(945.000000,65.149600)"><path fill="#46ba7d" stroke="#6f6f6f" stroke-width="1" fill-rule="nonzero" d="M77.5,47.0L77.5,.0L.0,.0L.0,47.0L77.5,47.0z"/><text style="fill:#ffffff;font-family:微软雅黑,PingFang SC,Mircrosoft YaHei,Arial;font-size:10.00pt" xml:space="preserve"><tspan x="12.1" y="25.6">系统实例</tspan></text></g><g id="shape41" transform="translate(516.000000,65.149600)"><path fill="#46ba7d" stroke="#639f32" stroke-width="1" fill-rule="nonzero" d="M80.0,47.0L80.0,.0L.0,.0L.0,47.0L80.0,47.0z"/><text style="fill:#ffffff;font-family:微软雅黑,PingFang SC,Mircrosoft YaHei,Arial;font-size:10.00pt" xml:space="preserve"><tspan x="13.3" y="25.6">外设实例</tspan></text></g><g id="shape42" transform="translate(404.500000,65.149600)"><path fill="#46ba7d" stroke="#639f32" stroke-width="1" fill-rule="nonzero" d="M80.5,47.0L80.5,.0L.0,.0L.0,47.0L80.5,47.0z"/><text style="fill:#ffffff;font-family:微软雅黑,PingFang SC,Mircrosoft YaHei,Arial;font-size:10.00pt" xml:space="preserve"><tspan x="15.6" y="25.6">BLE实例</tspan></text></g><g id="shape43" transform="translate(300.500000,65.149600)"><path fill="#46ba7d" stroke="#639f32" stroke-width="1" fill-rule="nonzero" d="M68.5,47.0L68.5,.0L.0,.0L.0,47.0L68.5,47.0z"/><text style="fill:#ffffff;font-family:微软雅黑,PingFang SC,Mircrosoft YaHei,Arial;font-size:10.00pt" xml:space="preserve"><tspan x="6.9" y="25.6">WiFi实例</tspan></text></g><g id="shape44" transform="translate(83.500000,65.149600)"><text style="fill:#191919;font-family:微软雅黑,PingFang SC,Mircrosoft YaHei,Arial;font-size:14.00pt" xml:space="preserve"><tspan x="31.0" y="23.3">应用（实例）</tspan></text></g><g id="shape45" transform="translate(704.500000,382.149000)"><path fill="#46ba7d" stroke="#6f6f6f" stroke-width="1" fill-rule="nonzero" d="M148.0,38.0L148.0,.0L.0,.0L.0,38.0L148.0,38.0z"/><text style="fill:#ffffff;font-family:微软雅黑,PingFang SC,Mircrosoft YaHei,Arial;font-size:11.00pt" xml:space="preserve"><tspan x="34.9" y="22.3">WiFi Driver</tspan></text></g><g id="shape46" transform="translate(487.500000,359.075500)"><path fill="#46ba7d" stroke="#639f32" stroke-width="1" fill-rule="nonzero" d="M48.0,51.9L48.0,.0L.0,.0L.0,51.9L48.0,51.9z"/><text style="fill:#ffffff;font-family:微软雅黑,PingFang SC,Mircrosoft YaHei,Arial;font-size:11.00pt" xml:space="preserve"><tspan x="9.3" y="29.3">HAL</tspan></text></g><g id="shape47" transform="translate(421.500000,359.075500)"><path fill="#46ba7d" stroke="#639f32" stroke-width="1" fill-rule="nonzero" d="M48.0,51.9L48.0,.0L.0,.0L.0,51.9L48.0,51.9z"/><text style="fill:#ffffff;font-family:微软雅黑,PingFang SC,Mircrosoft YaHei,Arial;font-size:11.00pt" xml:space="preserve"><tspan x="8.7" y="29.3">DRV</tspan></text></g><g id="shape48" transform="translate(481.500000,609.500000)"><path fill="#a0d8ef" stroke="#351d50" stroke-width="1" fill-rule="nonzero" d="M147.0,33.0L147.0,7.0C147.0,3.1,143.9,.0,140.0,.0L7.0,.0C3.1,.0,.0,3.1,.0,7.0L.0,33.0C.0,36.9,3.1,40.0,7.0,40.0L140.0,40.0C143.9,40.0,147.0,36.9,147.0,33.0z"/><text style="fill:#191919;font-family:微软雅黑,PingFang SC,Mircrosoft YaHei,Arial;font-size:12.00pt" xml:space="preserve"><tspan x="46.6" y="23.7">W801S</tspan></text></g><g id="shape49" transform="translate(672.500000,609.500000)"><path fill="#a0d8ef" stroke="#351d50" stroke-width="1" fill-rule="nonzero" d="M147.0,33.0L147.0,7.0C147.0,3.1,143.9,.0,140.0,.0L7.0,.0C3.1,.0,.0,3.1,.0,7.0L.0,33.0C.0,36.9,3.1,40.0,7.0,40.0L140.0,40.0C143.9,40.0,147.0,36.9,147.0,33.0z"/><text style="fill:#191919;font-family:微软雅黑,PingFang SC,Mircrosoft YaHei,Arial;font-size:12.00pt" xml:space="preserve"><tspan x="60.6" y="23.7">……</tspan></text></g><g id="shape50" transform="translate(867.500000,609.500000)"><path fill="#a0d8ef" stroke="#351d50" stroke-width="1" fill-rule="nonzero" d="M147.0,33.0L147.0,7.0C147.0,3.1,143.9,.0,140.0,.0L7.0,.0C3.1,.0,.0,3.1,.0,7.0L.0,33.0C.0,36.9,3.1,40.0,7.0,40.0L140.0,40.0C143.9,40.0,147.0,36.9,147.0,33.0z"/><text style="fill:#191919;font-family:微软雅黑,PingFang SC,Mircrosoft YaHei,Arial;font-size:12.00pt" xml:space="preserve"><tspan x="51.3" y="23.7">W806</tspan></text></g><g id="shape51" transform="translate(844.000000,211.149000)"><path fill="#46ba7d" stroke="#6f6f6f" stroke-width="1" fill-rule="nonzero" d="M67.5,45.0L67.5,.0L.0,.0L.0,45.0L67.5,45.0z"/><text style="fill:#ffffff;font-family:微软雅黑,PingFang SC,Mircrosoft YaHei,Arial;font-size:11.00pt" xml:space="preserve"><tspan x="21.8" y="25.8">……</tspan></text></g><g id="shape52" transform="translate(843.000000,65.149600)"><path fill="#46ba7d" stroke="#639f32" stroke-width="1" fill-rule="nonzero" d="M77.5,47.0L77.5,.0L.0,.0L.0,47.0L77.5,47.0z"/><text style="fill:#ffffff;font-family:微软雅黑,PingFang SC,Mircrosoft YaHei,Arial;font-size:10.00pt" xml:space="preserve"><tspan x="28.1" y="25.6">……</tspan></text></g><g id="shape53" transform="translate(624.500000,65.149600)"><path fill="#46ba7d" stroke="#639f32" stroke-width="1" fill-rule="nonzero" d="M86.5,47.0L86.5,.0L.0,.0L.0,47.0L86.5,47.0z"/><text style="fill:#ffffff;font-family:微软雅黑,PingFang SC,Mircrosoft YaHei,Arial;font-size:10.00pt" xml:space="preserve"><tspan x="11.3" y="25.6">Cloud实例</tspan></text></g><g id="shape54" transform="translate(729.000000,65.149600)"><path fill="#46ba7d" stroke="#639f32" stroke-width="1" fill-rule="nonzero" d="M86.5,47.0L86.5,.0L.0,.0L.0,47.0L86.5,47.0z"/><text style="fill:#ffffff;font-family:微软雅黑,PingFang SC,Mircrosoft YaHei,Arial;font-size:10.00pt" xml:space="preserve"><tspan x="23.3" y="25.6">AI实例</tspan></text></g><g id="group55" transform="translate(1071.500000,42.150000)"><path fill="#cad4cc" id="shape56" stroke="#351d50" stroke-width="2" fill-rule="nonzero" d="M11.0,.0L126.5,.0C132.6,.0,137.5,4.9,137.5,11.0L137.5,656.7C137.5,662.8,132.6,667.7,126.5,667.7L11.0,667.7C4.9,667.7,.0,662.8,.0,656.7L.0,11.0C.0,4.9,4.9,.0,11.0,.0z"/></g><g id="shape57" transform="translate(1117.250000,487.000000)"><path fill="#ffffff" stroke="#351d50" stroke-width="1" fill-rule="nonzero" d="M46.0,193.0L46.0,.0L.0,.0L.0,193.0L46.0,193.0z"/><text style="fill:#191919;font-family:微软雅黑,PingFang SC,Mircrosoft YaHei,Arial;font-size:10.00pt" xml:space="preserve"><tspan x="19.2" y="60.6">S</tspan><tspan x="18.8" y="77.9">o</tspan><tspan x="18.6" y="95.2">C</tspan><tspan x="16.3" y="112.6">组</tspan><tspan x="16.3" y="129.9">件</tspan></text></g><g id="shape58" transform="translate(1088.000000,204.299000)"><path fill="#ffffff" stroke="#351d50" stroke-width="1" fill-rule="nonzero" d="M46.0,215.8L46.0,.0L.0,.0L.0,215.8L46.0,215.8z"/><text style="fill:#191919;font-family:微软雅黑,PingFang SC,Mircrosoft YaHei,Arial;font-size:10.00pt" xml:space="preserve"><tspan x="16.3" y="81.5">系</tspan><tspan x="16.3" y="98.8">统</tspan><tspan x="16.3" y="116.1">组</tspan><tspan x="16.3" y="133.5">件</tspan></text></g><g id="shape59" transform="translate(1147.000000,204.299000)"><path fill="#ffffff" stroke="#351d50" stroke-width="1" fill-rule="nonzero" d="M46.0,215.8L46.0,.0L.0,.0L.0,215.8L46.0,215.8z"/><text style="fill:#191919;font-family:微软雅黑,PingFang SC,Mircrosoft YaHei,Arial;font-size:10.00pt" xml:space="preserve"><tspan x="16.3" y="81.5">应</tspan><tspan x="16.3" y="98.8">用</tspan><tspan x="16.3" y="116.1">组</tspan><tspan x="16.3" y="133.5">件</tspan></text></g><g id="shape60" transform="translate(1088.000000,47.350000)"><path fill="#ffffff" stroke="#351d50" stroke-width="1" fill-rule="nonzero" d="M46.0,84.7L46.0,.0L.0,.0L.0,84.7L46.0,84.7z"/><text style="fill:#191919;font-family:微软雅黑,PingFang SC,Mircrosoft YaHei,Arial;font-size:10.00pt" xml:space="preserve"><tspan x="7.2" y="25.4">main</tspan><tspan x="16.3" y="42.7">组</tspan><tspan x="16.3" y="60.0">件</tspan></text></g><g id="shape61" transform="translate(1147.000000,47.350000)"><path fill="#ffffff" stroke="#351d50" stroke-width="1" fill-rule="nonzero" d="M46.0,84.7L46.0,.0L.0,.0L.0,84.7L46.0,84.7z"/><text style="fill:#191919;font-family:微软雅黑,PingFang SC,Mircrosoft YaHei,Arial;font-size:10.00pt" xml:space="preserve"><tspan x="16.3" y="15.9">用</tspan><tspan x="16.3" y="33.2">户</tspan><tspan x="16.3" y="50.5">组</tspan><tspan x="16.3" y="67.9">件</tspan></text></g><g id="shape62" transform="translate(296.500000,359.075500)"><path fill="#46ba7d" stroke="#639f32" stroke-width="1" fill-rule="nonzero" d="M101.5,51.9L101.5,.0L.0,.0L.0,51.9L101.5,51.9z"/><text style="fill:#ffffff;font-family:微软雅黑,PingFang SC,Mircrosoft YaHei,Arial;font-size:11.00pt" xml:space="preserve"><tspan x="5.9" y="29.3">Device Table</tspan></text></g></g></svg>