<svg xmlns="http://www.w3.org/2000/svg" xmlns:ev="http://www.w3.org/2001/xml-events" height="742" width="1305" viewBox="0 0 1305 742" xmlns:xlink="http://www.w3.org/1999/xlink"><defs/><g id="page1" transform="translate(5.5,5.5)"><rect y="0" x="0" height="732" fill="#ffffff" width="1295"/><g id="group1" transform="translate(54.000000,471.124000)"><path d="M11.0,.0L937.5,.0C943.6,.0,948.5,4.9,948.5,11.0L948.5,240.8C948.5,246.8,943.6,251.8,937.5,251.8L11.0,251.8C4.9,251.8,.0,246.8,.0,240.8L.0,11.0C.0,4.9,4.9,.0,11.0,.0z" fill-rule="nonzero" fill="#ffffff" id="shape2" stroke="#351d50" stroke-width="2"/></g><g id="group3" transform="translate(54.000000,157.149000)"><path d="M11.0,.0L937.5,.0C943.6,.0,948.5,4.9,948.5,11.0L948.5,284.0C948.5,290.1,943.6,295.0,937.5,295.0L11.0,295.0C4.9,295.0,.0,290.1,.0,284.0L.0,11.0C.0,4.9,4.9,.0,11.0,.0z" fill-rule="nonzero" fill="#ffffff" id="shape4" stroke="#ff0000" stroke-width="3.3333299160003662"/></g><g id="group5" transform="translate(227.000000,176.149000)"><path d="M11.0,.0L751.5,.0C757.6,.0,762.5,4.9,762.5,11.0L762.5,102.0C762.5,108.1,757.6,113.0,751.5,113.0L11.0,113.0C4.9,113.0,.0,108.1,.0,102.0L.0,11.0C.0,4.9,4.9,.0,11.0,.0z" fill="none" id="shape6" stroke="#351d50" stroke-width="2"/></g><g id="shape7" transform="translate(460.500000,222.149000)"><path d="M96.0,45.0L96.0,.0L.0,.0L.0,45.0L96.0,45.0z" fill-rule="nonzero" fill="#46ba7d" stroke="#6f6f6f" stroke-width="1"/><text xml:space="preserve" style="fill:#ffffff;font-family:微软雅黑,PingFang SC,Mircrosoft YaHei,Arial;font-size:11.00pt"><tspan y="25.8" x="13.3">FreeRTOS</tspan></text></g><g id="shape8" transform="translate(361.500000,222.149000)"><path d="M71.5,45.0L71.5,.0L.0,.0L.0,45.0L71.5,45.0z" fill-rule="nonzero" fill="#46ba7d" stroke="#6f6f6f" stroke-width="1"/><text xml:space="preserve" style="fill:#ffffff;font-family:微软雅黑,PingFang SC,Mircrosoft YaHei,Arial;font-size:11.00pt"><tspan y="25.8" x="26.4">AT</tspan></text></g><g id="shape9" transform="translate(250.500000,222.149000)"><path d="M81.5,45.0L81.5,.0L.0,.0L.0,45.0L81.5,45.0z" fill-rule="nonzero" fill="#46ba7d" stroke="#6f6f6f" stroke-width="1"/><text xml:space="preserve" style="fill:#ffffff;font-family:微软雅黑,PingFang SC,Mircrosoft YaHei,Arial;font-size:11.00pt"><tspan y="25.8" x="22.1">HTTP</tspan></text></g><g id="group10" transform="translate(73.000000,592.000000)"><path d="M11.0,.0L904.5,.0C910.6,.0,915.5,4.9,915.5,11.0L915.5,96.0C915.5,102.1,910.6,107.0,904.5,107.0L11.0,107.0C4.9,107.0,.0,102.1,.0,96.0L.0,11.0C.0,4.9,4.9,.0,11.0,.0z" fill-rule="nonzero" fill="#ffffff" id="shape11" stroke="#351d50" stroke-width="2"/></g><g id="shape12" transform="translate(241.500000,620.500000)"><path d="M147.0,33.0L147.0,7.0C147.0,3.1,143.9,.0,140.0,.0L7.0,.0C3.1,.0,.0,3.1,.0,7.0L.0,33.0C.0,36.9,3.1,40.0,7.0,40.0L140.0,40.0C143.9,40.0,147.0,36.9,147.0,33.0z" fill-rule="nonzero" fill="#a0d8ef" stroke="#351d50" stroke-width="1"/><text xml:space="preserve" style="fill:#191919;font-family:微软雅黑,PingFang SC,Mircrosoft YaHei,Arial;font-size:12.00pt"><tspan y="23.7" x="51.3">W800</tspan></text></g><g id="shape13" transform="translate(88.000000,605.000000)"><text xml:space="preserve" style="fill:#191919;font-family:微软雅黑,PingFang SC,Mircrosoft YaHei,Arial;font-size:14.00pt"><tspan y="40.3" x="42.9">SoC</tspan></text></g><g id="group14" transform="translate(73.000000,479.850000)"><path d="M11.0,.0L904.5,.0C910.6,.0,915.5,4.9,915.5,11.0L915.5,73.0C915.5,79.1,910.6,84.0,904.5,84.0L11.0,84.0C4.9,84.0,.0,79.1,.0,73.0L.0,11.0C.0,4.9,4.9,.0,11.0,.0z" fill-rule="nonzero" fill="#ffffff" id="shape15" stroke="#351d50" stroke-width="2"/></g><g id="shape16" transform="translate(250.000000,489.350000)"><path d="M100.0,60.0L100.0,.0L.0,.0L.0,60.0L100.0,60.0z" fill-rule="nonzero" fill="#46ba7d" stroke="#351d50" stroke-width="1"/><text xml:space="preserve" style="fill:#191919;font-family:微软雅黑,PingFang SC,Mircrosoft YaHei,Arial;font-size:12.00pt"><tspan y="33.7" x="31.3">RAM</tspan></text></g><g id="shape17" transform="translate(372.000000,489.350000)"><path d="M100.0,60.0L100.0,.0L.0,.0L.0,60.0L100.0,60.0z" fill-rule="nonzero" fill="#46ba7d" stroke="#351d50" stroke-width="1"/><text xml:space="preserve" style="fill:#191919;font-family:微软雅黑,PingFang SC,Mircrosoft YaHei,Arial;font-size:12.00pt"><tspan y="33.7" x="25.3">FLASH</tspan></text></g><g id="shape18" transform="translate(498.000000,489.350000)"><path d="M100.0,60.0L100.0,.0L.0,.0L.0,60.0L100.0,60.0z" fill-rule="nonzero" fill="#46ba7d" stroke="#351d50" stroke-width="1"/><text xml:space="preserve" style="fill:#191919;font-family:微软雅黑,PingFang SC,Mircrosoft YaHei,Arial;font-size:12.00pt"><tspan y="33.7" x="14.9">PIN MUX</tspan></text></g><g id="shape19" transform="translate(623.500000,489.350000)"><path d="M100.0,60.0L100.0,.0L.0,.0L.0,60.0L100.0,60.0z" fill-rule="nonzero" fill="#46ba7d" stroke="#351d50" stroke-width="1"/><text xml:space="preserve" style="fill:#191919;font-family:微软雅黑,PingFang SC,Mircrosoft YaHei,Arial;font-size:12.00pt"><tspan y="33.7" x="11.1">Peripheral</tspan></text></g><g id="shape20" transform="translate(746.000000,489.350000)"><path d="M100.0,60.0L100.0,.0L.0,.0L.0,60.0L100.0,60.0z" fill-rule="nonzero" fill="#46ba7d" stroke="#351d50" stroke-width="1"/><text xml:space="preserve" style="fill:#191919;font-family:微软雅黑,PingFang SC,Mircrosoft YaHei,Arial;font-size:12.00pt"><tspan y="33.7" x="33.1">WiFi</tspan></text></g><g id="shape21" transform="translate(867.000000,489.350000)"><path d="M100.0,60.0L100.0,.0L.0,.0L.0,60.0L100.0,60.0z" fill-rule="nonzero" fill="#46ba7d" stroke="#351d50" stroke-width="1"/><text xml:space="preserve" style="fill:#191919;font-family:微软雅黑,PingFang SC,Mircrosoft YaHei,Arial;font-size:12.00pt"><tspan y="33.7" x="23.3">BT/BLE</tspan></text></g><g id="shape22" transform="translate(88.000000,488.850000)"><text xml:space="preserve" style="fill:#191919;font-family:微软雅黑,PingFang SC,Mircrosoft YaHei,Arial;font-size:14.00pt"><tspan y="25.3" x="19.9">Hardware </tspan><tspan y="49.8" x="17.9">Resources</tspan></text></g><g id="group23" transform="translate(54.000000,53.149600)"><path d="M11.0,.0L937.5,.0C943.6,.0,948.5,4.9,948.5,11.0L948.5,69.0C948.5,75.1,943.6,80.0,937.5,80.0L11.0,80.0C4.9,80.0,.0,75.1,.0,69.0L.0,11.0C.0,4.9,4.9,.0,11.0,.0z" fill-rule="nonzero" fill="#ffffff" id="shape24" stroke="#351d50" stroke-width="2"/></g><g id="group25" transform="translate(227.000000,296.149000)"><path d="M11.0,.0L329.0,.0C335.1,.0,340.0,4.9,340.0,11.0L340.0,133.0C340.0,139.1,335.1,144.0,329.0,144.0L11.0,144.0C4.9,144.0,.0,139.1,.0,133.0L.0,11.0C.0,4.9,4.9,.0,11.0,.0z" fill="none" id="shape26" stroke="#351d50" stroke-width="2"/></g><g id="group27" transform="translate(634.000000,296.149000)"><path d="M11.0,.0L329.0,.0C335.1,.0,340.0,4.9,340.0,11.0L340.0,133.0C340.0,139.1,335.1,144.0,329.0,144.0L11.0,144.0C4.9,144.0,.0,139.1,.0,133.0L.0,11.0C.0,4.9,4.9,.0,11.0,.0z" fill="none" id="shape28" stroke="#6f6f6f" stroke-width="2"/></g><g id="shape29" transform="translate(323.000000,411.000000)"><path d="M148.0,22.5L148.0,.0L.0,.0L.0,22.5L148.0,22.5z" fill-rule="nonzero" fill="#46ba7d" stroke="#639f32" stroke-width="1"/><text xml:space="preserve" style="fill:#ffffff;font-family:微软雅黑,PingFang SC,Mircrosoft YaHei,Arial;font-size:11.00pt"><tspan y="14.6" x="66.4">LL</tspan></text></g><g id="shape30" transform="translate(246.500000,296.149500)"><text xml:space="preserve" style="fill:#191919;font-family:微软雅黑,PingFang SC,Mircrosoft YaHei,Arial;font-size:13.00pt;font-weight:bold"><tspan y="16.9" x="69.2">Drive Components</tspan></text></g><g id="shape31" transform="translate(813.500000,393.149000)"><path d="M148.0,38.0L148.0,.0L.0,.0L.0,38.0L148.0,38.0z" fill-rule="nonzero" fill="#46ba7d" stroke="#6f6f6f" stroke-width="1"/><text xml:space="preserve" style="fill:#ffffff;font-family:微软雅黑,PingFang SC,Mircrosoft YaHei,Arial;font-size:11.00pt"><tspan y="22.3" x="12.0">BT/BLE Controller</tspan></text></g><g id="shape32" transform="translate(654.500000,349.149000)"><path d="M148.0,38.0L148.0,.0L.0,.0L.0,38.0L148.0,38.0z" fill-rule="nonzero" fill="#46ba7d" stroke="#6f6f6f" stroke-width="1"/><text xml:space="preserve" style="fill:#ffffff;font-family:微软雅黑,PingFang SC,Mircrosoft YaHei,Arial;font-size:11.00pt"><tspan y="22.3" x="18.4">Wpa_supplicant</tspan></text></g><g id="shape33" transform="translate(813.500000,349.149000)"><path d="M148.0,38.0L148.0,.0L.0,.0L.0,38.0L148.0,38.0z" fill-rule="nonzero" fill="#46ba7d" stroke="#6f6f6f" stroke-width="1"/><text xml:space="preserve" style="fill:#ffffff;font-family:微软雅黑,PingFang SC,Mircrosoft YaHei,Arial;font-size:11.00pt"><tspan y="22.3" x="27.1">BT/BLE HOST</tspan></text></g><g id="shape34" transform="translate(654.500000,306.149000)"><text xml:space="preserve" style="fill:#191919;font-family:微软雅黑,PingFang SC,Mircrosoft YaHei,Arial;font-size:13.00pt;font-weight:bold"><tspan y="23.0" x="23.4">Communication Components</tspan></text></g><g id="shape35" transform="translate(886.000000,222.149000)"><path d="M75.5,45.0L75.5,.0L.0,.0L.0,45.0L75.5,45.0z" fill-rule="nonzero" fill="#46ba7d" stroke="#6f6f6f" stroke-width="1"/><text xml:space="preserve" style="fill:#ffffff;font-family:微软雅黑,PingFang SC,Mircrosoft YaHei,Arial;font-size:11.00pt"><tspan y="25.8" x="25.3">BLE</tspan></text></g><g id="shape36" transform="translate(683.500000,222.149000)"><path d="M82.5,45.0L82.5,.0L.0,.0L.0,45.0L82.5,45.0z" fill-rule="nonzero" fill="#46ba7d" stroke="#6f6f6f" stroke-width="1"/><text xml:space="preserve" style="fill:#ffffff;font-family:微软雅黑,PingFang SC,Mircrosoft YaHei,Arial;font-size:11.00pt"><tspan y="25.8" x="25.7">WiFi</tspan></text></g><g id="shape37" transform="translate(586.500000,222.149000)"><path d="M67.5,45.0L67.5,.0L.0,.0L.0,45.0L67.5,45.0z" fill-rule="nonzero" fill="#46ba7d" stroke="#6f6f6f" stroke-width="1"/><text xml:space="preserve" style="fill:#ffffff;font-family:微软雅黑,PingFang SC,Mircrosoft YaHei,Arial;font-size:11.00pt"><tspan y="25.8" x="12.2">MQTT</tspan></text></g><g id="shape38" transform="translate(233.500000,182.649500)"><text xml:space="preserve" style="fill:#191919;font-family:微软雅黑,PingFang SC,Mircrosoft YaHei,Arial;font-size:13.00pt;font-weight:bold"><tspan y="20.0" x="1.8">Application Components</tspan></text></g><g id="shape39" transform="translate(73.000000,176.149000)"><text xml:space="preserve" style="fill:#191919;font-family:微软雅黑,PingFang SC,Mircrosoft YaHei,Arial;font-size:14.00pt"><tspan y="133.3" x="7.2">Components</tspan></text></g><g id="shape40" transform="translate(895.000000,76.149600)"><path d="M77.5,47.0L77.5,.0L.0,.0L.0,47.0L77.5,47.0z" fill-rule="nonzero" fill="#46ba7d" stroke="#6f6f6f" stroke-width="1"/><text xml:space="preserve" style="fill:#ffffff;font-family:微软雅黑,PingFang SC,Mircrosoft YaHei,Arial;font-size:10.00pt"><tspan y="16.1" x="15.9">System </tspan><tspan y="33.4" x="11.9">example</tspan></text></g><g id="shape41" transform="translate(466.000000,76.149600)"><path d="M80.0,47.0L80.0,.0L.0,.0L.0,47.0L80.0,47.0z" fill-rule="nonzero" fill="#46ba7d" stroke="#639f32" stroke-width="1"/><text xml:space="preserve" style="fill:#ffffff;font-family:微软雅黑,PingFang SC,Mircrosoft YaHei,Arial;font-size:10.00pt"><tspan y="16.1" x="8.0">Peripheral </tspan><tspan y="33.4" x="13.1">example</tspan></text></g><g id="shape42" transform="translate(354.500000,76.149600)"><path d="M80.5,47.0L80.5,.0L.0,.0L.0,47.0L80.5,47.0z" fill-rule="nonzero" fill="#46ba7d" stroke="#639f32" stroke-width="1"/><text xml:space="preserve" style="fill:#ffffff;font-family:微软雅黑,PingFang SC,Mircrosoft YaHei,Arial;font-size:10.00pt"><tspan y="16.1" x="18.0">BT/BLE </tspan><tspan y="33.4" x="13.4">example</tspan></text></g><g id="shape43" transform="translate(250.500000,76.149600)"><path d="M68.5,47.0L68.5,.0L.0,.0L.0,47.0L68.5,47.0z" fill-rule="nonzero" fill="#46ba7d" stroke="#639f32" stroke-width="1"/><text xml:space="preserve" style="fill:#ffffff;font-family:微软雅黑,PingFang SC,Mircrosoft YaHei,Arial;font-size:10.00pt"><tspan y="16.1" x="20.3">WiFi </tspan><tspan y="33.4" x="7.4">example</tspan></text></g><g id="shape44" transform="translate(73.000000,61.649600)"><text xml:space="preserve" style="fill:#191919;font-family:微软雅黑,PingFang SC,Mircrosoft YaHei,Arial;font-size:14.00pt"><tspan y="25.3" x="16.1">Application </tspan><tspan y="49.8" x="19.3">(examples)</tspan></text></g><g id="shape45" transform="translate(654.500000,393.149000)"><path d="M148.0,38.0L148.0,.0L.0,.0L.0,38.0L148.0,38.0z" fill-rule="nonzero" fill="#46ba7d" stroke="#6f6f6f" stroke-width="1"/><text xml:space="preserve" style="fill:#ffffff;font-family:微软雅黑,PingFang SC,Mircrosoft YaHei,Arial;font-size:11.00pt"><tspan y="22.3" x="34.9">WiFi Driver</tspan></text></g><g id="shape46" transform="translate(323.000000,383.075000)"><path d="M148.0,22.5L148.0,.0L.0,.0L.0,22.5L148.0,22.5z" fill-rule="nonzero" fill="#46ba7d" stroke="#639f32" stroke-width="1"/><text xml:space="preserve" style="fill:#ffffff;font-family:微软雅黑,PingFang SC,Mircrosoft YaHei,Arial;font-size:11.00pt"><tspan y="14.6" x="59.3">HAL</tspan></text></g><g id="shape47" transform="translate(323.000000,354.149000)"><path d="M148.0,22.5L148.0,.0L.0,.0L.0,22.5L148.0,22.5z" fill-rule="nonzero" fill="#46ba7d" stroke="#639f32" stroke-width="1"/><text xml:space="preserve" style="fill:#ffffff;font-family:微软雅黑,PingFang SC,Mircrosoft YaHei,Arial;font-size:11.00pt"><tspan y="14.6" x="58.7">DRV</tspan></text></g><g id="shape48" transform="translate(431.500000,620.500000)"><path d="M147.0,33.0L147.0,7.0C147.0,3.1,143.9,.0,140.0,.0L7.0,.0C3.1,.0,.0,3.1,.0,7.0L.0,33.0C.0,36.9,3.1,40.0,7.0,40.0L140.0,40.0C143.9,40.0,147.0,36.9,147.0,33.0z" fill-rule="nonzero" fill="#a0d8ef" stroke="#351d50" stroke-width="1"/><text xml:space="preserve" style="fill:#191919;font-family:微软雅黑,PingFang SC,Mircrosoft YaHei,Arial;font-size:12.00pt"><tspan y="23.7" x="51.3">W801</tspan></text></g><g id="shape49" transform="translate(622.500000,620.500000)"><path d="M147.0,33.0L147.0,7.0C147.0,3.1,143.9,.0,140.0,.0L7.0,.0C3.1,.0,.0,3.1,.0,7.0L.0,33.0C.0,36.9,3.1,40.0,7.0,40.0L140.0,40.0C143.9,40.0,147.0,36.9,147.0,33.0z" fill-rule="nonzero" fill="#a0d8ef" stroke="#351d50" stroke-width="1"/><text xml:space="preserve" style="fill:#191919;font-family:微软雅黑,PingFang SC,Mircrosoft YaHei,Arial;font-size:12.00pt"><tspan y="23.7" x="60.6">……</tspan></text></g><g id="shape50" transform="translate(817.500000,620.500000)"><path d="M147.0,33.0L147.0,7.0C147.0,3.1,143.9,.0,140.0,.0L7.0,.0C3.1,.0,.0,3.1,.0,7.0L.0,33.0C.0,36.9,3.1,40.0,7.0,40.0L140.0,40.0C143.9,40.0,147.0,36.9,147.0,33.0z" fill-rule="nonzero" fill="#a0d8ef" stroke="#351d50" stroke-width="1"/><text xml:space="preserve" style="fill:#191919;font-family:微软雅黑,PingFang SC,Mircrosoft YaHei,Arial;font-size:12.00pt"><tspan y="23.7" x="51.3">W806</tspan></text></g><g id="shape51" transform="translate(794.000000,222.149000)"><path d="M67.5,45.0L67.5,.0L.0,.0L.0,45.0L67.5,45.0z" fill-rule="nonzero" fill="#46ba7d" stroke="#6f6f6f" stroke-width="1"/><text xml:space="preserve" style="fill:#ffffff;font-family:微软雅黑,PingFang SC,Mircrosoft YaHei,Arial;font-size:11.00pt"><tspan y="25.8" x="21.8">……</tspan></text></g><g id="shape52" transform="translate(793.000000,76.149600)"><path d="M77.5,47.0L77.5,.0L.0,.0L.0,47.0L77.5,47.0z" fill-rule="nonzero" fill="#46ba7d" stroke="#639f32" stroke-width="1"/><text xml:space="preserve" style="fill:#ffffff;font-family:微软雅黑,PingFang SC,Mircrosoft YaHei,Arial;font-size:10.00pt"><tspan y="25.6" x="28.1">……</tspan></text></g><g id="shape53" transform="translate(574.500000,76.149600)"><path d="M86.5,47.0L86.5,.0L.0,.0L.0,47.0L86.5,47.0z" fill-rule="nonzero" fill="#46ba7d" stroke="#639f32" stroke-width="1"/><text xml:space="preserve" style="fill:#ffffff;font-family:微软雅黑,PingFang SC,Mircrosoft YaHei,Arial;font-size:10.00pt"><tspan y="16.1" x="24.6">Cloud </tspan><tspan y="33.4" x="16.4">example</tspan></text></g><g id="shape54" transform="translate(679.000000,76.149600)"><path d="M86.5,47.0L86.5,.0L.0,.0L.0,47.0L86.5,47.0z" fill-rule="nonzero" fill="#46ba7d" stroke="#639f32" stroke-width="1"/><text xml:space="preserve" style="fill:#ffffff;font-family:微软雅黑,PingFang SC,Mircrosoft YaHei,Arial;font-size:10.00pt"><tspan y="16.1" x="36.6">AI</tspan><tspan y="33.4" x="16.4">example</tspan></text></g><g id="group55" transform="translate(1021.500000,54.150000)"><path d="M11.0,.0L188.5,.0C194.6,.0,199.5,4.9,199.5,11.0L199.5,656.7C199.5,662.8,194.6,667.7,188.5,667.7L11.0,667.7C4.9,667.7,.0,662.8,.0,656.7L.0,11.0C.0,4.9,4.9,.0,11.0,.0z" fill-rule="nonzero" fill="#cad4cc" id="shape56" stroke="#351d50" stroke-width="2"/></g><g id="shape57" transform="translate(1029.180400,486.000000)"><path d="M185.1,193.0L185.1,.0L.0,.0L.0,193.0L185.1,193.0z" fill-rule="nonzero" fill="#ffffff" stroke="#351d50" stroke-width="1"/><text xml:space="preserve" style="fill:#191919;font-family:微软雅黑,PingFang SC,Mircrosoft YaHei,Arial;font-size:10.00pt"><tspan y="98.6" x="37.5">SoC Components</tspan></text></g><g id="shape58" transform="translate(1029.360400,157.649000)"><path d="M87.6,295.0L87.6,.0L.0,.0L.0,295.0L87.6,295.0z" fill-rule="nonzero" fill="#ffffff" stroke="#351d50" stroke-width="1"/><text xml:space="preserve" style="fill:#191919;font-family:微软雅黑,PingFang SC,Mircrosoft YaHei,Arial;font-size:10.00pt"><tspan y="140.1" x="20.9">System </tspan><tspan y="157.4" x="3.2">Components</tspan></text></g><g id="shape59" transform="translate(1124.360400,157.149000)"><path d="M87.6,295.0L87.6,.0L.0,.0L.0,295.0L87.6,295.0z" fill-rule="nonzero" fill="#ffffff" stroke="#351d50" stroke-width="1"/><text xml:space="preserve" style="fill:#191919;font-family:微软雅黑,PingFang SC,Mircrosoft YaHei,Arial;font-size:10.00pt"><tspan y="140.1" x="7.6">Application </tspan><tspan y="157.4" x="3.2">Components</tspan></text></g><g id="shape60" transform="translate(1027.360400,68.176100)"><path d="M90.6,65.0L90.6,.0L.0,.0L.0,65.0L90.6,65.0z" fill-rule="nonzero" fill="#ffffff" stroke="#351d50" stroke-width="1"/><text xml:space="preserve" style="fill:#191919;font-family:微软雅黑,PingFang SC,Mircrosoft YaHei,Arial;font-size:10.00pt"><tspan y="25.0" x="29.3">Main </tspan><tspan y="42.4" x="4.7">Components</tspan></text></g><g id="shape61" transform="translate(1122.860400,68.176100)"><path d="M90.6,65.0L90.6,.0L.0,.0L.0,65.0L90.6,65.0z" fill-rule="nonzero" fill="#ffffff" stroke="#351d50" stroke-width="1"/><text xml:space="preserve" style="fill:#191919;font-family:微软雅黑,PingFang SC,Mircrosoft YaHei,Arial;font-size:10.00pt"><tspan y="25.0" x="31.1">User </tspan><tspan y="42.4" x="4.7">Components</tspan></text></g><g id="shape62" transform="translate(323.000000,325.500000)"><path d="M148.0,22.5L148.0,.0L.0,.0L.0,22.5L148.0,22.5z" fill-rule="nonzero" fill="#46ba7d" stroke="#639f32" stroke-width="1"/><text xml:space="preserve" style="fill:#ffffff;font-family:微软雅黑,PingFang SC,Mircrosoft YaHei,Arial;font-size:11.00pt"><tspan y="14.6" x="29.1">Device Table</tspan></text></g></g></svg>